<mxfile host="app.diagrams.net" agent="Mozilla/5.0 (X11; Linux x86_64) AppleWebKit/537.36 (KHTML, like Gecko) Chrome/134.0.0.0 Safari/537.36" version="27.1.0">
  <diagram name="Page-1" id="iEFEcIStyzQ87aIsUYCT">
    <mxGraphModel dx="1009" dy="663" grid="1" gridSize="10" guides="1" tooltips="1" connect="1" arrows="1" fold="1" page="1" pageScale="1" pageWidth="827" pageHeight="1169" math="0" shadow="0">
      <root>
        <mxCell id="0" />
        <mxCell id="1" parent="0" />
        <mxCell id="QaTVe9ati8fBHp8hlaLN-1" value="" style="shape=table;startSize=0;container=1;collapsible=0;childLayout=tableLayout;fontSize=16;" parent="1" vertex="1">
          <mxGeometry x="10" y="10" width="760" height="150" as="geometry" />
        </mxCell>
        <mxCell id="QaTVe9ati8fBHp8hlaLN-2" value="" style="shape=tableRow;horizontal=0;startSize=0;swimlaneHead=0;swimlaneBody=0;strokeColor=inherit;top=0;left=0;bottom=0;right=0;collapsible=0;dropTarget=0;fillColor=none;points=[[0,0.5],[1,0.5]];portConstraint=eastwest;fontSize=16;" parent="QaTVe9ati8fBHp8hlaLN-1" vertex="1">
          <mxGeometry width="760" height="50" as="geometry" />
        </mxCell>
        <mxCell id="QaTVe9ati8fBHp8hlaLN-3" value="id" style="shape=partialRectangle;html=1;whiteSpace=wrap;connectable=0;strokeColor=inherit;overflow=hidden;fillColor=none;top=0;left=0;bottom=0;right=0;pointerEvents=1;fontSize=16;" parent="QaTVe9ati8fBHp8hlaLN-2" vertex="1">
          <mxGeometry width="190" height="50" as="geometry">
            <mxRectangle width="190" height="50" as="alternateBounds" />
          </mxGeometry>
        </mxCell>
        <mxCell id="QaTVe9ati8fBHp8hlaLN-4" value="window_name&amp;nbsp;" style="shape=partialRectangle;html=1;whiteSpace=wrap;connectable=0;strokeColor=inherit;overflow=hidden;fillColor=none;top=0;left=0;bottom=0;right=0;pointerEvents=1;fontSize=16;" parent="QaTVe9ati8fBHp8hlaLN-2" vertex="1">
          <mxGeometry x="190" width="190" height="50" as="geometry">
            <mxRectangle width="190" height="50" as="alternateBounds" />
          </mxGeometry>
        </mxCell>
        <mxCell id="QaTVe9ati8fBHp8hlaLN-5" value="window_sub_name&amp;nbsp;" style="shape=partialRectangle;html=1;whiteSpace=wrap;connectable=0;strokeColor=inherit;overflow=hidden;fillColor=none;top=0;left=0;bottom=0;right=0;pointerEvents=1;fontSize=16;" parent="QaTVe9ati8fBHp8hlaLN-2" vertex="1">
          <mxGeometry x="380" width="190" height="50" as="geometry">
            <mxRectangle width="190" height="50" as="alternateBounds" />
          </mxGeometry>
        </mxCell>
        <mxCell id="98xniG6_eQBt5ZO36um7-1" value="class" style="shape=partialRectangle;html=1;whiteSpace=wrap;connectable=0;strokeColor=inherit;overflow=hidden;fillColor=none;top=0;left=0;bottom=0;right=0;pointerEvents=1;fontSize=16;" vertex="1" parent="QaTVe9ati8fBHp8hlaLN-2">
          <mxGeometry x="570" width="190" height="50" as="geometry">
            <mxRectangle width="190" height="50" as="alternateBounds" />
          </mxGeometry>
        </mxCell>
        <mxCell id="QaTVe9ati8fBHp8hlaLN-6" value="" style="shape=tableRow;horizontal=0;startSize=0;swimlaneHead=0;swimlaneBody=0;strokeColor=inherit;top=0;left=0;bottom=0;right=0;collapsible=0;dropTarget=0;fillColor=none;points=[[0,0.5],[1,0.5]];portConstraint=eastwest;fontSize=16;" parent="QaTVe9ati8fBHp8hlaLN-1" vertex="1">
          <mxGeometry y="50" width="760" height="50" as="geometry" />
        </mxCell>
        <mxCell id="QaTVe9ati8fBHp8hlaLN-7" value="1" style="shape=partialRectangle;html=1;whiteSpace=wrap;connectable=0;strokeColor=inherit;overflow=hidden;fillColor=none;top=0;left=0;bottom=0;right=0;pointerEvents=1;fontSize=16;" parent="QaTVe9ati8fBHp8hlaLN-6" vertex="1">
          <mxGeometry width="190" height="50" as="geometry">
            <mxRectangle width="190" height="50" as="alternateBounds" />
          </mxGeometry>
        </mxCell>
        <mxCell id="QaTVe9ati8fBHp8hlaLN-8" value="RustRover" style="shape=partialRectangle;html=1;whiteSpace=wrap;connectable=0;strokeColor=inherit;overflow=hidden;fillColor=none;top=0;left=0;bottom=0;right=0;pointerEvents=1;fontSize=16;" parent="QaTVe9ati8fBHp8hlaLN-6" vertex="1">
          <mxGeometry x="190" width="190" height="50" as="geometry">
            <mxRectangle width="190" height="50" as="alternateBounds" />
          </mxGeometry>
        </mxCell>
        <mxCell id="QaTVe9ati8fBHp8hlaLN-9" value="ctvtcntr" style="shape=partialRectangle;html=1;whiteSpace=wrap;connectable=0;strokeColor=inherit;overflow=hidden;fillColor=none;top=0;left=0;bottom=0;right=0;pointerEvents=1;fontSize=16;" parent="QaTVe9ati8fBHp8hlaLN-6" vertex="1">
          <mxGeometry x="380" width="190" height="50" as="geometry">
            <mxRectangle width="190" height="50" as="alternateBounds" />
          </mxGeometry>
        </mxCell>
        <mxCell id="98xniG6_eQBt5ZO36um7-2" value="dev" style="shape=partialRectangle;html=1;whiteSpace=wrap;connectable=0;strokeColor=inherit;overflow=hidden;fillColor=none;top=0;left=0;bottom=0;right=0;pointerEvents=1;fontSize=16;" vertex="1" parent="QaTVe9ati8fBHp8hlaLN-6">
          <mxGeometry x="570" width="190" height="50" as="geometry">
            <mxRectangle width="190" height="50" as="alternateBounds" />
          </mxGeometry>
        </mxCell>
        <mxCell id="QaTVe9ati8fBHp8hlaLN-10" value="" style="shape=tableRow;horizontal=0;startSize=0;swimlaneHead=0;swimlaneBody=0;strokeColor=inherit;top=0;left=0;bottom=0;right=0;collapsible=0;dropTarget=0;fillColor=none;points=[[0,0.5],[1,0.5]];portConstraint=eastwest;fontSize=16;" parent="QaTVe9ati8fBHp8hlaLN-1" vertex="1">
          <mxGeometry y="100" width="760" height="50" as="geometry" />
        </mxCell>
        <mxCell id="QaTVe9ati8fBHp8hlaLN-11" value="2" style="shape=partialRectangle;html=1;whiteSpace=wrap;connectable=0;strokeColor=inherit;overflow=hidden;fillColor=none;top=0;left=0;bottom=0;right=0;pointerEvents=1;fontSize=16;" parent="QaTVe9ati8fBHp8hlaLN-10" vertex="1">
          <mxGeometry width="190" height="50" as="geometry">
            <mxRectangle width="190" height="50" as="alternateBounds" />
          </mxGeometry>
        </mxCell>
        <mxCell id="QaTVe9ati8fBHp8hlaLN-12" value="RustRover" style="shape=partialRectangle;html=1;whiteSpace=wrap;connectable=0;strokeColor=inherit;overflow=hidden;fillColor=none;top=0;left=0;bottom=0;right=0;pointerEvents=1;fontSize=16;" parent="QaTVe9ati8fBHp8hlaLN-10" vertex="1">
          <mxGeometry x="190" width="190" height="50" as="geometry">
            <mxRectangle width="190" height="50" as="alternateBounds" />
          </mxGeometry>
        </mxCell>
        <mxCell id="QaTVe9ati8fBHp8hlaLN-13" value="soundlistbackend" style="shape=partialRectangle;html=1;whiteSpace=wrap;connectable=0;strokeColor=inherit;overflow=hidden;fillColor=none;top=0;left=0;bottom=0;right=0;pointerEvents=1;fontSize=16;" parent="QaTVe9ati8fBHp8hlaLN-10" vertex="1">
          <mxGeometry x="380" width="190" height="50" as="geometry">
            <mxRectangle width="190" height="50" as="alternateBounds" />
          </mxGeometry>
        </mxCell>
        <mxCell id="98xniG6_eQBt5ZO36um7-3" value="dev" style="shape=partialRectangle;html=1;whiteSpace=wrap;connectable=0;strokeColor=inherit;overflow=hidden;fillColor=none;top=0;left=0;bottom=0;right=0;pointerEvents=1;fontSize=16;" vertex="1" parent="QaTVe9ati8fBHp8hlaLN-10">
          <mxGeometry x="570" width="190" height="50" as="geometry">
            <mxRectangle width="190" height="50" as="alternateBounds" />
          </mxGeometry>
        </mxCell>
        <mxCell id="Tm4tUJZLO9NF2hYZxGGP-1" value="" style="shape=table;startSize=0;container=1;collapsible=0;childLayout=tableLayout;fontSize=16;" parent="1" vertex="1">
          <mxGeometry x="10" y="180" width="410" height="300" as="geometry" />
        </mxCell>
        <mxCell id="Tm4tUJZLO9NF2hYZxGGP-2" value="" style="shape=tableRow;horizontal=0;startSize=0;swimlaneHead=0;swimlaneBody=0;strokeColor=inherit;top=0;left=0;bottom=0;right=0;collapsible=0;dropTarget=0;fillColor=none;points=[[0,0.5],[1,0.5]];portConstraint=eastwest;fontSize=16;" parent="Tm4tUJZLO9NF2hYZxGGP-1" vertex="1">
          <mxGeometry width="410" height="50" as="geometry" />
        </mxCell>
        <mxCell id="Tm4tUJZLO9NF2hYZxGGP-3" value="id" style="shape=partialRectangle;html=1;whiteSpace=wrap;connectable=0;strokeColor=inherit;overflow=hidden;fillColor=none;top=0;left=0;bottom=0;right=0;pointerEvents=1;fontSize=16;" parent="Tm4tUJZLO9NF2hYZxGGP-2" vertex="1">
          <mxGeometry width="70" height="50" as="geometry">
            <mxRectangle width="70" height="50" as="alternateBounds" />
          </mxGeometry>
        </mxCell>
        <mxCell id="Tm4tUJZLO9NF2hYZxGGP-4" value="ts" style="shape=partialRectangle;html=1;whiteSpace=wrap;connectable=0;strokeColor=inherit;overflow=hidden;fillColor=none;top=0;left=0;bottom=0;right=0;pointerEvents=1;fontSize=16;" parent="Tm4tUJZLO9NF2hYZxGGP-2" vertex="1">
          <mxGeometry x="70" width="280" height="50" as="geometry">
            <mxRectangle width="280" height="50" as="alternateBounds" />
          </mxGeometry>
        </mxCell>
        <mxCell id="Tm4tUJZLO9NF2hYZxGGP-5" value="dur" style="shape=partialRectangle;html=1;whiteSpace=wrap;connectable=0;strokeColor=inherit;overflow=hidden;fillColor=none;top=0;left=0;bottom=0;right=0;pointerEvents=1;fontSize=16;" parent="Tm4tUJZLO9NF2hYZxGGP-2" vertex="1">
          <mxGeometry x="350" width="60" height="50" as="geometry">
            <mxRectangle width="60" height="50" as="alternateBounds" />
          </mxGeometry>
        </mxCell>
        <mxCell id="Tm4tUJZLO9NF2hYZxGGP-6" value="" style="shape=tableRow;horizontal=0;startSize=0;swimlaneHead=0;swimlaneBody=0;strokeColor=inherit;top=0;left=0;bottom=0;right=0;collapsible=0;dropTarget=0;fillColor=none;points=[[0,0.5],[1,0.5]];portConstraint=eastwest;fontSize=16;" parent="Tm4tUJZLO9NF2hYZxGGP-1" vertex="1">
          <mxGeometry y="50" width="410" height="50" as="geometry" />
        </mxCell>
        <mxCell id="Tm4tUJZLO9NF2hYZxGGP-7" value="1" style="shape=partialRectangle;html=1;whiteSpace=wrap;connectable=0;strokeColor=inherit;overflow=hidden;fillColor=none;top=0;left=0;bottom=0;right=0;pointerEvents=1;fontSize=16;" parent="Tm4tUJZLO9NF2hYZxGGP-6" vertex="1">
          <mxGeometry width="70" height="50" as="geometry">
            <mxRectangle width="70" height="50" as="alternateBounds" />
          </mxGeometry>
        </mxCell>
        <mxCell id="Tm4tUJZLO9NF2hYZxGGP-8" value="&lt;span style=&quot;color: rgb(0, 0, 0); font-family: &amp;quot;Courier New&amp;quot;, Courier, fixed, monospace; font-size: 13.5432px; text-align: start; background-color: rgb(255, 255, 255);&quot;&gt;1970-01-01 00:00:01.000000&lt;/span&gt;" style="shape=partialRectangle;html=1;whiteSpace=wrap;connectable=0;strokeColor=inherit;overflow=hidden;fillColor=none;top=0;left=0;bottom=0;right=0;pointerEvents=1;fontSize=16;" parent="Tm4tUJZLO9NF2hYZxGGP-6" vertex="1">
          <mxGeometry x="70" width="280" height="50" as="geometry">
            <mxRectangle width="280" height="50" as="alternateBounds" />
          </mxGeometry>
        </mxCell>
        <mxCell id="Tm4tUJZLO9NF2hYZxGGP-9" value="12" style="shape=partialRectangle;html=1;whiteSpace=wrap;connectable=0;strokeColor=inherit;overflow=hidden;fillColor=none;top=0;left=0;bottom=0;right=0;pointerEvents=1;fontSize=16;" parent="Tm4tUJZLO9NF2hYZxGGP-6" vertex="1">
          <mxGeometry x="350" width="60" height="50" as="geometry">
            <mxRectangle width="60" height="50" as="alternateBounds" />
          </mxGeometry>
        </mxCell>
        <mxCell id="Tm4tUJZLO9NF2hYZxGGP-10" value="" style="shape=tableRow;horizontal=0;startSize=0;swimlaneHead=0;swimlaneBody=0;strokeColor=inherit;top=0;left=0;bottom=0;right=0;collapsible=0;dropTarget=0;fillColor=none;points=[[0,0.5],[1,0.5]];portConstraint=eastwest;fontSize=16;" parent="Tm4tUJZLO9NF2hYZxGGP-1" vertex="1">
          <mxGeometry y="100" width="410" height="50" as="geometry" />
        </mxCell>
        <mxCell id="Tm4tUJZLO9NF2hYZxGGP-11" value="1" style="shape=partialRectangle;html=1;whiteSpace=wrap;connectable=0;strokeColor=inherit;overflow=hidden;fillColor=none;top=0;left=0;bottom=0;right=0;pointerEvents=1;fontSize=16;" parent="Tm4tUJZLO9NF2hYZxGGP-10" vertex="1">
          <mxGeometry width="70" height="50" as="geometry">
            <mxRectangle width="70" height="50" as="alternateBounds" />
          </mxGeometry>
        </mxCell>
        <mxCell id="Tm4tUJZLO9NF2hYZxGGP-12" value="&lt;span style=&quot;color: rgb(0, 0, 0); font-family: &amp;quot;Courier New&amp;quot;, Courier, fixed, monospace; font-size: 13.5432px; text-align: start; background-color: rgb(255, 255, 255);&quot;&gt;1970-01-01 00:00:13.000000&lt;/span&gt;" style="shape=partialRectangle;html=1;whiteSpace=wrap;connectable=0;strokeColor=inherit;overflow=hidden;fillColor=none;top=0;left=0;bottom=0;right=0;pointerEvents=1;fontSize=16;" parent="Tm4tUJZLO9NF2hYZxGGP-10" vertex="1">
          <mxGeometry x="70" width="280" height="50" as="geometry">
            <mxRectangle width="280" height="50" as="alternateBounds" />
          </mxGeometry>
        </mxCell>
        <mxCell id="Tm4tUJZLO9NF2hYZxGGP-13" value="15" style="shape=partialRectangle;html=1;whiteSpace=wrap;connectable=0;strokeColor=inherit;overflow=hidden;fillColor=none;top=0;left=0;bottom=0;right=0;pointerEvents=1;fontSize=16;" parent="Tm4tUJZLO9NF2hYZxGGP-10" vertex="1">
          <mxGeometry x="350" width="60" height="50" as="geometry">
            <mxRectangle width="60" height="50" as="alternateBounds" />
          </mxGeometry>
        </mxCell>
        <mxCell id="Tm4tUJZLO9NF2hYZxGGP-14" style="shape=tableRow;horizontal=0;startSize=0;swimlaneHead=0;swimlaneBody=0;strokeColor=inherit;top=0;left=0;bottom=0;right=0;collapsible=0;dropTarget=0;fillColor=none;points=[[0,0.5],[1,0.5]];portConstraint=eastwest;fontSize=16;" parent="Tm4tUJZLO9NF2hYZxGGP-1" vertex="1">
          <mxGeometry y="150" width="410" height="50" as="geometry" />
        </mxCell>
        <mxCell id="Tm4tUJZLO9NF2hYZxGGP-15" value="1" style="shape=partialRectangle;html=1;whiteSpace=wrap;connectable=0;strokeColor=inherit;overflow=hidden;fillColor=none;top=0;left=0;bottom=0;right=0;pointerEvents=1;fontSize=16;" parent="Tm4tUJZLO9NF2hYZxGGP-14" vertex="1">
          <mxGeometry width="70" height="50" as="geometry">
            <mxRectangle width="70" height="50" as="alternateBounds" />
          </mxGeometry>
        </mxCell>
        <mxCell id="Tm4tUJZLO9NF2hYZxGGP-16" value="&lt;span style=&quot;color: rgb(0, 0, 0); font-family: &amp;quot;Courier New&amp;quot;, Courier, fixed, monospace; font-size: 13.5432px; text-align: start; background-color: rgb(255, 255, 255);&quot;&gt;1970-01-01 00:00:28.000000&lt;/span&gt;" style="shape=partialRectangle;html=1;whiteSpace=wrap;connectable=0;strokeColor=inherit;overflow=hidden;fillColor=none;top=0;left=0;bottom=0;right=0;pointerEvents=1;fontSize=16;" parent="Tm4tUJZLO9NF2hYZxGGP-14" vertex="1">
          <mxGeometry x="70" width="280" height="50" as="geometry">
            <mxRectangle width="280" height="50" as="alternateBounds" />
          </mxGeometry>
        </mxCell>
        <mxCell id="Tm4tUJZLO9NF2hYZxGGP-17" value="1" style="shape=partialRectangle;html=1;whiteSpace=wrap;connectable=0;strokeColor=inherit;overflow=hidden;fillColor=none;top=0;left=0;bottom=0;right=0;pointerEvents=1;fontSize=16;" parent="Tm4tUJZLO9NF2hYZxGGP-14" vertex="1">
          <mxGeometry x="350" width="60" height="50" as="geometry">
            <mxRectangle width="60" height="50" as="alternateBounds" />
          </mxGeometry>
        </mxCell>
        <mxCell id="Tm4tUJZLO9NF2hYZxGGP-18" style="shape=tableRow;horizontal=0;startSize=0;swimlaneHead=0;swimlaneBody=0;strokeColor=inherit;top=0;left=0;bottom=0;right=0;collapsible=0;dropTarget=0;fillColor=none;points=[[0,0.5],[1,0.5]];portConstraint=eastwest;fontSize=16;" parent="Tm4tUJZLO9NF2hYZxGGP-1" vertex="1">
          <mxGeometry y="200" width="410" height="50" as="geometry" />
        </mxCell>
        <mxCell id="Tm4tUJZLO9NF2hYZxGGP-19" value="1" style="shape=partialRectangle;html=1;whiteSpace=wrap;connectable=0;strokeColor=inherit;overflow=hidden;fillColor=none;top=0;left=0;bottom=0;right=0;pointerEvents=1;fontSize=16;" parent="Tm4tUJZLO9NF2hYZxGGP-18" vertex="1">
          <mxGeometry width="70" height="50" as="geometry">
            <mxRectangle width="70" height="50" as="alternateBounds" />
          </mxGeometry>
        </mxCell>
        <mxCell id="Tm4tUJZLO9NF2hYZxGGP-20" value="&lt;span style=&quot;color: rgb(0, 0, 0); font-family: &amp;quot;Courier New&amp;quot;, Courier, fixed, monospace; font-size: 13.5432px; text-align: start; background-color: rgb(255, 255, 255);&quot;&gt;1970-01-01 00:00:29.000000&lt;/span&gt;" style="shape=partialRectangle;html=1;whiteSpace=wrap;connectable=0;strokeColor=inherit;overflow=hidden;fillColor=none;top=0;left=0;bottom=0;right=0;pointerEvents=1;fontSize=16;" parent="Tm4tUJZLO9NF2hYZxGGP-18" vertex="1">
          <mxGeometry x="70" width="280" height="50" as="geometry">
            <mxRectangle width="280" height="50" as="alternateBounds" />
          </mxGeometry>
        </mxCell>
        <mxCell id="Tm4tUJZLO9NF2hYZxGGP-21" value="1" style="shape=partialRectangle;html=1;whiteSpace=wrap;connectable=0;strokeColor=inherit;overflow=hidden;fillColor=none;top=0;left=0;bottom=0;right=0;pointerEvents=1;fontSize=16;" parent="Tm4tUJZLO9NF2hYZxGGP-18" vertex="1">
          <mxGeometry x="350" width="60" height="50" as="geometry">
            <mxRectangle width="60" height="50" as="alternateBounds" />
          </mxGeometry>
        </mxCell>
        <mxCell id="Tm4tUJZLO9NF2hYZxGGP-22" style="shape=tableRow;horizontal=0;startSize=0;swimlaneHead=0;swimlaneBody=0;strokeColor=inherit;top=0;left=0;bottom=0;right=0;collapsible=0;dropTarget=0;fillColor=none;points=[[0,0.5],[1,0.5]];portConstraint=eastwest;fontSize=16;" parent="Tm4tUJZLO9NF2hYZxGGP-1" vertex="1">
          <mxGeometry y="250" width="410" height="50" as="geometry" />
        </mxCell>
        <mxCell id="Tm4tUJZLO9NF2hYZxGGP-23" value="1" style="shape=partialRectangle;html=1;whiteSpace=wrap;connectable=0;strokeColor=inherit;overflow=hidden;fillColor=none;top=0;left=0;bottom=0;right=0;pointerEvents=1;fontSize=16;" parent="Tm4tUJZLO9NF2hYZxGGP-22" vertex="1">
          <mxGeometry width="70" height="50" as="geometry">
            <mxRectangle width="70" height="50" as="alternateBounds" />
          </mxGeometry>
        </mxCell>
        <mxCell id="Tm4tUJZLO9NF2hYZxGGP-24" value="&lt;span style=&quot;color: rgb(0, 0, 0); font-family: &amp;quot;Courier New&amp;quot;, Courier, fixed, monospace; font-size: 13.5432px; text-align: start; background-color: rgb(255, 255, 255);&quot;&gt;1970-01-01 00:00:30.000000&lt;/span&gt;" style="shape=partialRectangle;html=1;whiteSpace=wrap;connectable=0;strokeColor=inherit;overflow=hidden;fillColor=none;top=0;left=0;bottom=0;right=0;pointerEvents=1;fontSize=16;" parent="Tm4tUJZLO9NF2hYZxGGP-22" vertex="1">
          <mxGeometry x="70" width="280" height="50" as="geometry">
            <mxRectangle width="280" height="50" as="alternateBounds" />
          </mxGeometry>
        </mxCell>
        <mxCell id="Tm4tUJZLO9NF2hYZxGGP-25" value="1" style="shape=partialRectangle;html=1;whiteSpace=wrap;connectable=0;strokeColor=inherit;overflow=hidden;fillColor=none;top=0;left=0;bottom=0;right=0;pointerEvents=1;fontSize=16;" parent="Tm4tUJZLO9NF2hYZxGGP-22" vertex="1">
          <mxGeometry x="350" width="60" height="50" as="geometry">
            <mxRectangle width="60" height="50" as="alternateBounds" />
          </mxGeometry>
        </mxCell>
        <mxCell id="Tm4tUJZLO9NF2hYZxGGP-42" value="with such window data&amp;nbsp;&lt;div&gt;and time data tables I can&amp;nbsp;&lt;/div&gt;&lt;div&gt;give really detailed activity and&lt;/div&gt;&lt;div&gt;production overview on any day, date, or a sector from date to date&lt;/div&gt;" style="text;strokeColor=none;fillColor=none;html=1;align=center;verticalAlign=middle;whiteSpace=wrap;rounded=0;fontSize=16;" parent="1" vertex="1">
          <mxGeometry x="450" y="180" width="210" height="210" as="geometry" />
        </mxCell>
      </root>
    </mxGraphModel>
  </diagram>
</mxfile>
